HIERARCHY
ROOT Hips
{
	OFFSET 0.00000 0.00000 0.00000
	CHANNELS 6 Xposition Yposition Zposition Zrotation Yrotation Xrotation 
	JOINT LHipJoint
	{
		OFFSET 0 0 0
		CHANNELS 3 Zrotation Yrotation Xrotation
		JOINT LeftHip
		{
			OFFSET 3.13874 -1.57224 1.49786
			CHANNELS 3 Zrotation Yrotation Xrotation
			JOINT LeftKnee
			{
				OFFSET 2.10955 -5.79594 0.00000
				CHANNELS 3 Zrotation Yrotation Xrotation
				JOINT LeftAnkle
				{
					OFFSET 2.41843 -6.64458 0.00000
					CHANNELS 3 Zrotation Yrotation Xrotation
					JOINT LeftToe
					{
						OFFSET 0.04713 -0.12948 1.66229
						CHANNELS 3 Zrotation Yrotation Xrotation
						End Site
						{
							OFFSET 0.00000 -0.00000 0.85167
						}
					}
				}
			}
		}
	}
	JOINT RHipJoint
	{
		OFFSET 0 0 0
		CHANNELS 3 Zrotation Yrotation Xrotation
		JOINT RightHip
		{
			OFFSET -3.13988 -1.57224 1.49786
			CHANNELS 3 Zrotation Yrotation Xrotation
			JOINT RightKnee
			{
				OFFSET -2.15006 -5.90725 0.00000
				CHANNELS 3 Zrotation Yrotation Xrotation
				JOINT RightAnkle
				{
					OFFSET -2.34496 -6.44273 0.00000
					CHANNELS 3 Zrotation Yrotation Xrotation
					JOINT RightToe
					{
						OFFSET -0.08699 -0.23900 1.55223
						CHANNELS 3 Zrotation Yrotation Xrotation
						End Site
						{
							OFFSET -0.00000 -0.00000 0.80281
						}
					}
				}
			}
		}
	}
	JOINT lowerback
	{
		OFFSET 0 0 0
		CHANNELS 3 Zrotation Yrotation Xrotation
		JOINT Chest
		{
			OFFSET 0.01292 1.96517 -0.16495
			CHANNELS 3 Zrotation Yrotation Xrotation
			JOINT Chest2
			{
				OFFSET 0.02122 1.88666 0.19706
				CHANNELS 3 Zrotation Yrotation Xrotation
				JOINT lowerneck
				{
					OFFSET 0 0 0
					CHANNELS 3 Zrotation Yrotation Xrotation
					JOINT Neck
					{
						OFFSET -0.01683 1.81591 0.07903
						CHANNELS 3 Zrotation Yrotation Xrotation
						JOINT Head
						{
							OFFSET 0.00815 1.74013 -0.47700
							CHANNELS 3 Zrotation Yrotation Xrotation
							End Site
							{
								OFFSET -0.00204 1.83225 -0.16933
							}
						}
					}
				}
				JOINT LeftCollar
				{
					OFFSET 0 0 0
					CHANNELS 3 Zrotation Yrotation Xrotation
					JOINT LeftShoulder
					{
						OFFSET 3.38482 1.41533 0.19802
CHANNELS 3 Zrotation Xrotation Yrotation
						JOINT LeftElbow
						{
OFFSET 0 -4.327120 0.000000
CHANNELS 3 Zrotation Xrotation Yrotation
							JOINT LeftWrist
							{
OFFSET 0 -3.285870 -0.000000
CHANNELS 3 Zrotation Xrotation Yrotation
								JOINT lhand
								{
									OFFSET 0 0 0
CHANNELS 3 Zrotation Xrotation Yrotation
									JOINT LFingers
									{
OFFSET 0 -0.433160 -0.000000
CHANNELS 3 Zrotation Xrotation Yrotation
										End Site
										{
OFFSET 0 -0.349220 -0.000000
										}
									}
								}
								JOINT LThumb
								{
OFFSET 0 0.000000 0.000000
CHANNELS 3 Zrotation Xrotation Yrotation
									End Site
									{
OFFSET 0 -0.354560 0.354560
									}
								}
							}
						}
					}
				}
				JOINT RightCollar
				{
					OFFSET 0 0 0
					CHANNELS 3 Zrotation Yrotation Xrotation
					JOINT RightShoulder
					{
						OFFSET -3.09725 1.62858 -0.14144
CHANNELS 3 Zrotation Xrotation Yrotation
						JOINT RightElbow
						{
OFFSET 0 -4.291040 0.000000
CHANNELS 3 Zrotation Xrotation Yrotation
							JOINT RightWrist
							{
OFFSET 0 -3.227200 -0.000000
CHANNELS 3 Zrotation Xrotation Yrotation
								JOINT rhand
								{
									OFFSET 0 0 0
CHANNELS 3 Zrotation Xrotation Yrotation
									JOINT RFingers
									{
OFFSET 0 -0.543620 -0.000000
CHANNELS 3 Zrotation Xrotation Yrotation
										End Site
										{
OFFSET 0 -0.438280 -0.000000
										}
									}
								}
								JOINT RThumb
								{
OFFSET 0 0.000000 0.000000
CHANNELS 3 Zrotation Xrotation Yrotation
									End Site
									{
OFFSET 0 -0.444970 0.444970
									}
								}
							}
						}
					}
				}
			}
		}
	}
}
MOTION
Frames: 7
Frame Time: 0.008333333333333333
-37.253200 15.513200 1.524000 -171.284000 1.399400 -172.736000 0.000000 0.000000 0.000000 -4.631200 -34.824400 -26.064000 0.500000 4.533400 12.582400 1.882800 0.320900 -26.089600 4.644500 -12.972000 -39.263600 0.000000 0.000000 0.000000 45.694300 9.058000 7.295200 -1.522700 -7.791800 22.083600 -1.402700 12.189200 -21.597400 -0.806700 -5.732200 16.009200 2.612300 -1.105300 13.213700 6.680700 2.399000 -13.263900 5.258900 2.215200 -23.514200 -2.839300 -8.008400 -9.665300 -5.211900 -0.683100 47.361100 -1.167000 1.570900 20.434400 -0.000000 0.000000 0.000000 2.464400 33.609400 -8.205300 15.742000 -25.169600 3.535500 24.446500 17.286200 -23.384200 0.000000 0.000000 0.000000 -7.125000 0.000000 0.000000 -5.091200 55.315100 1.291700 -0.000000 0.000000 0.000000 -29.515900 26.883600 53.350800 -21.142500 -31.994300 -6.125300 -26.647500 -2.742700 17.285500 0.000000 0.000000 0.000000 7.125000 0.000000 -0.000000 1.262700 49.172100 -0.129900
-37.324937 15.521022 0.923028 -171.972917 1.526831 -173.026257 0.000000 0.000000 0.000000 -7.597554 -33.292527 -26.313402 0.857972 5.903464 16.505403 1.555562 0.194430 -23.670047 3.665700 -11.699256 -34.679453 0.000000 0.000000 0.000000 44.675549 7.950881 9.779518 -1.430530 -7.562699 21.393535 -1.216649 10.246901 -19.924171 -0.549146 -4.745788 13.185133 4.209779 -1.487070 12.724999 5.984510 2.179166 -13.769345 3.582810 1.772985 -23.746471 -5.402971 -7.756140 -7.845518 -3.244607 -0.245234 47.380721 0.427177 1.627771 20.049846 0.000000 0.000000 0.000000 2.486964 34.399044 -6.567191 15.538480 -24.890840 3.449444 17.394197 14.346722 -20.731460 0.000000 0.000000 0.000000 -7.125000 0.000000 0.000000 -11.270382 51.280603 1.728704 0.000000 0.000000 0.000000 -29.256048 28.590870 53.550983 -20.204456 -30.887736 -5.636011 -27.041285 -2.844092 17.403925 0.000000 0.000000 0.000000 7.125000 0.000000 0.000000 0.896555 49.366195 -0.096508
-37.371389 15.564759 0.318502 -173.000356 1.326492 -173.249160 0.000000 0.000000 0.000000 -10.755340 -31.661265 -26.038473 1.268151 7.135819 20.119240 1.279162 -0.069786 -21.367701 2.523439 -9.874024 -28.575332 0.000000 0.000000 0.000000 43.270444 6.635250 11.815952 -1.367400 -7.400899 20.908564 -0.975476 6.739163 -17.627813 -0.336540 -3.722407 10.297597 2.481752 -1.427179 12.372307 5.876242 1.756585 -13.811338 4.603961 1.872621 -23.552667 -4.991731 -8.268896 -8.506570 -3.540550 -1.108445 47.665824 0.036343 1.310155 20.427631 0.000000 0.000000 0.000000 2.491288 33.712933 -6.228134 15.458999 -24.781552 3.416024 22.667124 17.701521 -22.926746 0.000000 0.000000 0.000000 -7.125000 0.000000 0.000000 -6.761448 54.498521 1.520426 0.000000 0.000000 0.000000 -28.621459 30.326664 51.378894 -19.439556 -29.960917 -5.248733 -26.125807 -2.615505 16.825883 0.000000 0.000000 0.000000 7.125000 0.000000 0.000000 1.689082 48.587409 -0.148869
-37.420366 15.628829 -0.265763 -173.931411 1.081051 -173.688840 0.000000 0.000000 0.000000 -14.238629 -29.936998 -23.605051 1.406593 7.501834 21.210834 1.043985 -2.110250 -18.725578 1.556833 -7.864171 -22.307906 0.000000 0.000000 0.000000 41.990782 5.665663 12.831860 -1.549921 -7.856069 22.278884 -0.613990 1.746350 -14.313141 -0.358295 -3.828466 10.596579 0.976197 -1.337673 12.451486 5.723439 1.421361 -13.778832 5.423411 1.950684 -23.546843 -4.154647 -8.752709 -8.772786 -4.337648 -1.936333 47.609849 -0.689880 1.010784 20.386794 0.000000 0.000000 0.000000 2.987735 32.909025 -7.431309 15.624839 -25.009280 3.485816 20.090208 15.660930 -22.366850 0.000000 0.000000 0.000000 -7.125000 0.000000 0.000000 -9.205820 53.416920 1.883832 0.000000 0.000000 0.000000 -27.934450 31.949829 49.762367 -18.869432 -29.255893 -4.967037 -25.730830 -2.615729 17.405886 0.000000 0.000000 0.000000 7.125000 0.000000 0.000000 2.184693 49.155295 -0.224049
-37.473662 15.693013 -0.821277 -175.218679 1.195631 -174.647801 0.000000 0.000000 0.000000 -18.393968 -28.059287 -19.129892 1.262928 7.122625 20.079620 0.908934 -5.144022 -17.039139 0.826789 -5.780393 -16.154516 0.000000 0.000000 0.000000 39.948578 4.765605 12.493952 -2.128928 -9.121687 26.182518 -0.095991 -5.351113 -10.149537 -0.372349 -3.398426 9.455803 -0.371235 -1.146178 13.145785 5.367701 1.112325 -13.491456 5.915841 1.930914 -23.593727 -3.872602 -8.977697 -8.820507 -4.286307 -2.558718 47.499739 -0.840561 0.789788 20.280529 0.000000 0.000000 0.000000 3.453000 32.035808 -8.836556 16.237899 -25.841588 3.749412 24.380928 17.714384 -23.935921 0.000000 0.000000 0.000000 -7.125000 0.000000 0.000000 -5.349517 55.887027 1.416531 0.000000 0.000000 0.000000 -27.442970 32.795110 48.500072 -18.067111 -28.242566 -4.581217 -25.036117 -2.637671 17.159800 0.000000 0.000000 0.000000 7.125000 0.000000 0.000000 2.813272 48.778850 -0.262131
-37.537829 15.752883 -1.326405 -176.430035 1.769986 -175.400775 0.000000 0.000000 0.000000 -21.889343 -26.171505 -14.960880 1.082077 6.610753 18.567433 0.749715 -8.697309 -15.704829 0.366219 -3.881387 -10.743843 0.000000 0.000000 0.000000 37.549538 4.346876 10.085891 -3.301021 -11.151196 32.809531 0.437362 -12.102950 -8.354633 -0.717746 -5.358929 14.947502 -0.858253 -1.022670 13.927972 4.845904 0.882572 -13.241865 5.680955 1.773799 -23.737542 -4.120272 -9.075064 -8.660479 -4.030742 -3.011954 47.200242 -0.766960 0.524028 20.023370 0.000000 0.000000 0.000000 4.157348 31.418130 -10.923015 17.166189 -27.075685 4.163054 25.023474 15.843818 -22.555460 0.000000 0.000000 0.000000 -7.125000 0.000000 0.000000 -4.199109 54.559739 0.976687 0.000000 0.000000 0.000000 -27.072891 32.738556 47.979880 -17.460011 -27.459791 -4.297503 -23.763818 -2.365765 17.511367 0.000000 0.000000 0.000000 7.125000 0.000000 0.000000 4.125072 48.956948 -0.404128
-37.583223 15.793250 -1.785863 -178.400114 2.555119 -175.948815 0.000000 0.000000 0.000000 -25.596579 -24.070413 -11.554586 0.924620 6.123938 17.145093 0.647257 -10.168992 -15.008771 0.335437 -3.721558 -10.294740 0.000000 0.000000 0.000000 35.005815 5.185474 5.815113 -5.125694 -13.496396 41.307242 1.036017 -17.778420 -8.916106 -2.447742 -9.080060 26.511069 -2.300847 -0.785385 14.803235 4.193650 0.508659 -13.016995 5.910767 1.707328 -23.969978 -4.120900 -9.102128 -8.540321 -4.050673 -3.331419 46.792001 -0.855334 0.302604 19.685483 0.000000 0.000000 0.000000 5.003051 30.536955 -13.234747 18.168203 -28.371074 4.629400 31.550496 18.947214 -24.804271 0.000000 0.000000 0.000000 -7.125000 0.000000 0.000000 2.344641 58.438310 -0.778450 0.000000 0.000000 0.000000 -26.723942 32.793954 46.963518 -17.364518 -27.335731 -4.253369 -23.718732 -1.175787 17.526832 0.000000 0.000000 0.000000 7.125000 0.000000 0.000000 4.171993 48.966656 -0.409032
